<?xml version="1.0" standalone="no"?><!DOCTYPE svg PUBLIC "-//W3C//DTD SVG 1.1//EN" "http://www.w3.org/Graphics/SVG/1.1/DTD/svg11.dtd"><svg class="icon" width="200px" height="200.00px" viewBox="0 0 1024 1024" version="1.1" xmlns="http://www.w3.org/2000/svg"><path d="M596.06092626 427.93907374h347.48385453C931.63214632 241.75612955 782.24387045 92.36785368 596.06092626 80.45521921V427.93907374z m418.6714501 72.05222207H524.00870419V9.26762364l38.69204305-1.2248877c3.09824577-0.21615714 6.19649155-0.40829556 9.34277166-0.40829659C817.0450943 7.63443935 1016.36556065 206.9549057 1016.36556065 451.9564811c0 3.14628012-0.19213945 6.24452589-0.40829659 9.34277166l-1.2248877 38.69204305zM451.9564811 1016.36556065C206.9549057 1016.36556065 7.63443935 817.0450943 7.63443935 572.0435189 7.63443935 330.28429335 197.08375107 135.40704788 438.89101097 128.36994754L475.97388845 127.24112957V548.02611155h420.76096429l-1.08078362 37.10689517c-7.03710034 241.8072599-201.9383635 431.23255393-443.69758802 431.23255393z m-48.03481575-813.10933573A369.91611195 369.91611195 0 0 0 79.68666245 572.0435189C79.68666245 777.32030197 246.67969803 944.31333755 451.9564811 944.31333755c189.97769469 0 345.418357-139.685243 368.78729398-324.2350029H403.92166535V203.25622492z" /></svg>