<?xml version="1.0" standalone="no"?><!DOCTYPE svg PUBLIC "-//W3C//DTD SVG 1.1//EN" "http://www.w3.org/Graphics/SVG/1.1/DTD/svg11.dtd"><svg class="icon" width="200px" height="171.81px" viewBox="0 0 1192 1024" version="1.1" xmlns="http://www.w3.org/2000/svg"><path fill="#000000" d="M602.25643145 8.77812571l79.33804523 79.33804522L93.70797524 563.86409267 14.36993001 484.58211736zM519.04960564 88.11617094l79.22590637-79.33804523 587.94257134 475.80399165-79.28197628 79.28197531zM179.77433477 398.45968889h112.13857872v616.7621854h-112.13857872v-616.7621854z m336.41573714 168.20786857h112.13857969v112.13857871h-112.1385797v-112.13857872z m-1e-8 168.20786856h112.1385797v112.1385797h-112.1385797v-112.1385797z m0 168.20786857h112.1385797v112.1385797h-112.1385797v-112.1385797z m168.20786857 0h112.1385797v112.1385797h-112.1385797v-112.1385797z m168.20786956 0h112.13857871v112.1385797h-112.13857871v-112.1385797z m-168.20786956-168.20786857h112.1385797v112.1385797h-112.1385797v-112.1385797z m0-168.20786857h112.1385797v112.13857872h-112.1385797v-112.13857871z m-168.20786857-168.20786856h112.1385797v112.13857871h-112.1385797v-112.13857871z m336.41573813 336.41573713h112.13857871v112.1385797h-112.13857871v-112.1385797z m168.20786857 168.20786857h112.13857871v112.1385797h-112.13857871v-112.1385797z" /></svg>