<?xml version="1.0" standalone="no"?><!DOCTYPE svg PUBLIC "-//W3C//DTD SVG 1.1//EN" "http://www.w3.org/Graphics/SVG/1.1/DTD/svg11.dtd"><svg class="icon" width="200px" height="200.00px" viewBox="0 0 1024 1024" version="1.1" xmlns="http://www.w3.org/2000/svg"><path d="M288.56948782 887.05165605H112.99517931a23.85291341 23.85291341 0 0 1-23.80180495-22.2420137l-15.09665623-209.84450444-51.63135058-25.8658009A23.75167933 23.75167933 0 0 1 9.28134759 607.76351581V480.09553659a119.76680607 119.76680607 0 0 1 119.71668046-119.71668045H256.66404156c45.94455027 0 88.46679864 26.92237028 108.19270297 68.53940898a23.95316465 23.95316465 0 1 1-43.27708119 20.53184562 72.16123049 72.16123049 0 0 0-64.91562178-41.16394246H128.99802805c-39.60415122 0-71.86047679 32.20619995-71.86047679 71.80936831v112.92318518l50.57379837 25.3124534a23.97871888 23.97871888 0 0 1 13.18500282 19.72590434l14.34182342 201.08726439h153.33131195a23.90303902 23.90303902 0 1 1 0 47.90731215z m-95.76351583-574.52802073A119.76680607 119.76680607 0 0 1 73.09027439 192.80498914 119.76680607 119.76680607 0 0 1 192.85708046 73.09027439 119.76680607 119.76680607 0 0 1 312.52265246 192.85708046a119.76680607 119.76680607 0 0 1-119.71668047 119.665572z m0-191.52703164c-39.60316837 0-71.80936832 32.20619995-71.80936831 71.80936831s32.20619995 71.81035117 71.80936831 71.81035119 71.81035117-32.20619995 71.81035119-71.81035119-32.20619995-71.80936832-71.81035119-71.80936831z m718.24897432 766.05505237H735.43051218a23.90303902 23.90303902 0 1 1 0-47.90731215h153.33131195l14.34182342-201.18751563a23.90303902 23.90303902 0 0 1 13.18500282-19.72590432l50.57379837-25.31245342V480.09651946c0-39.60415122-32.20619995-71.81035117-71.86047679-71.81035118H767.33595844c-27.62707747 0-53.03978213 16.10309998-64.91562178 41.1629596a23.95316465 23.95316465 0 1 1-43.27708119-20.53184561 120.42138766 120.42138766 0 0 1 108.19270297-68.53842613h127.66699637A119.76680607 119.76680607 0 0 1 1014.76976088 480.09651946v127.66797922c0 9.05799374-5.13246997 17.36115466-13.33537966 21.43607241l-51.53011649 25.71542405-14.99542214 209.84352159a24.05439873 24.05439873 0 0 1-23.90303905 22.29312217z m-79.8609183-574.52802073a119.76680607 119.76680607 0 0 1-119.71668047-119.71766333A119.76680607 119.76680607 0 0 1 831.19402801 73.09027439 119.76680607 119.76680607 0 0 1 950.90972561 192.85708046 119.76680607 119.76680607 0 0 1 831.14291954 312.52265246z m0-191.52703164c-39.60415122 0-71.81035117 32.20619995-71.81035119 71.80936831s32.20619995 71.81035117 71.81035119 71.81035119 71.80936832-32.20619995 71.80936831-71.81035119-32.20619995-71.80936832-71.80936831-71.80936831zM607.76351581 1014.71865241H416.23648419a24.00329026 24.00329026 0 0 1-23.9521818-22.44349902L377.53852548 755.25666774l-61.74591369-12.32893591a23.90303902 23.90303902 0 0 1-19.22268245-23.45092563V512a151.82164632 151.82164632 0 0 1 151.51990977-151.62114386h127.71810483A151.82164632 151.82164632 0 0 1 727.37896219 512v207.47877191c0 11.37163494-8.05154999 21.23556996-19.22268246 23.44994278L646.41036605 755.25666774l-14.7438112 237.01750279a24.00329026 24.00329026 0 0 1-23.95414751 22.44349903z m-169.08254976-47.85620367h146.53781666l14.59343435-232.94160218a23.90303902 23.90303902 0 0 1 19.12243123-21.94027714l60.53798462-12.07732499V512A103.91531704 103.91531704 0 0 0 575.75781833 408.28616828H448.09082196A103.91531704 103.91531704 0 0 0 344.42711586 512v187.80201034l60.53798461 12.07732498a23.75167933 23.75167933 0 0 1 19.12243123 21.94126l14.59343435 232.9917278zM512 312.52265246a151.82164632 151.82164632 0 0 1-151.62114386-151.62016101A151.82164632 151.82164632 0 0 1 512 9.28134759a151.82164632 151.82164632 0 0 1 151.62114386 151.62114386A151.82164632 151.82164632 0 0 1 512 312.52265246z m0-255.43522681a103.91531704 103.91531704 0 0 0-103.71383172 103.76395733c0 57.1667912 46.54802337 103.71481458 103.71383172 103.71481458a103.91531704 103.91531704 0 0 0 103.71383172-103.71481458A103.91531704 103.91531704 0 0 0 512 57.08742565z" /></svg>